<?xml version="1.0" encoding="UTF-8" standalone="no"?>
<!DOCTYPE svg PUBLIC "-//W3C//DTD SVG 1.1//EN" "http://www.w3.org/Graphics/SVG/1.1/DTD/svg11.dtd">
<svg width="100%" height="100%" viewBox="0 0 878 446" version="1.1" xmlns="http://www.w3.org/2000/svg" xmlns:xlink="http://www.w3.org/1999/xlink" xml:space="preserve" xmlns:serif="http://www.serif.com/" style="fill-rule:evenodd;clip-rule:evenodd;stroke-linejoin:round;stroke-miterlimit:2;">
    <g transform="matrix(4.16667,0,0,4.16667,-549,0)">
        <path d="M190.141,87.104L173.677,66.89L157.213,87.104L135.827,87.104L165.016,51.267L165.016,19.903L182.476,19.903L182.476,51.439L211.525,87.104L190.141,87.104Z" style="fill:rgb(140,198,63);fill-rule:nonzero;"/>
        <path d="M190.754,85.815L208.814,85.815L181.188,51.897L181.188,21.192L166.305,21.192L166.305,51.726L138.539,85.815L156.601,85.815L173.677,64.85L190.754,85.815ZM214.237,88.392L189.529,88.392L173.677,68.931L157.826,88.392L133.115,88.392L163.729,50.809L163.729,18.615L183.765,18.615L183.765,50.98L214.237,88.392Z" style="fill:rgb(35,31,32);fill-rule:nonzero;"/>
        <path d="M209.648,87.104L209.648,19.903L227.111,19.903L227.111,36.343L237.028,36.343L237.028,50.821L227.111,50.821L227.111,55.756L237.028,55.756L237.028,70.234L227.111,70.234L227.111,87.104L209.648,87.104Z" style="fill:rgb(140,198,63);fill-rule:nonzero;"/>
        <path d="M210.936,85.815L225.823,85.815L225.823,68.945L235.74,68.945L235.74,57.045L225.823,57.045L225.823,49.532L235.74,49.532L235.74,37.631L225.823,37.631L225.823,21.192L210.936,21.192L210.936,85.815ZM228.4,88.392L208.359,88.392L208.359,18.615L228.4,18.615L228.4,35.054L238.317,35.054L238.317,52.109L228.4,52.109L228.4,54.468L238.317,54.468L238.317,71.522L228.4,71.522L228.4,88.392Z" style="fill:rgb(35,31,32);fill-rule:nonzero;"/>
        <rect x="249.963" y="19.896" width="17.449" height="14.606" style="fill:rgb(140,198,63);fill-rule:nonzero;"/>
        <path d="M251.25,33.214L266.123,33.214L266.123,21.185L251.25,21.185L251.25,33.214ZM268.699,35.791L248.673,35.791L248.673,18.608L268.699,18.608L268.699,35.791Z" style="fill:rgb(35,31,32);fill-rule:nonzero;"/>
        <rect x="249.963" y="43.404" width="17.449" height="43.698" style="fill:rgb(140,198,63);fill-rule:nonzero;"/>
        <path d="M251.25,85.811L266.123,85.811L266.123,44.692L251.25,44.692L251.25,85.811ZM268.699,88.39L248.673,88.39L248.673,42.115L268.699,42.115L268.699,88.39Z" style="fill:rgb(35,31,32);fill-rule:nonzero;"/>
        <path d="M317.808,87.104L298.855,53.178L298.855,87.104L281.395,87.104L281.395,19.903L297.964,19.903L319.262,57.392L319.262,19.903L336.777,19.903L336.777,87.104L317.808,87.104Z" style="fill:rgb(140,198,63);fill-rule:nonzero;"/>
        <path d="M318.563,85.815L335.488,85.815L335.488,21.192L320.55,21.192L320.55,62.269L297.215,21.192L282.682,21.192L282.682,85.815L297.566,85.815L297.566,48.229L318.563,85.815ZM338.065,88.392L317.052,88.392L300.144,58.126L300.144,88.392L280.105,88.392L280.105,18.615L298.715,18.615L317.973,52.515L317.973,18.615L338.065,18.615L338.065,88.392Z" style="fill:rgb(35,31,32);fill-rule:nonzero;"/>
    </g>
</svg>
